# xmcd
#
# Track frame offsets:
#	225
#	8966
#	19307
#	25392
#	33170
#	45188
#	57847
#	61436
#	74858
#	82622
#	87599
#	96644
#	104105
#	116702
#	133019
#	144767
#	152630
#	169685
#	183308
#	191138
#	202370
#	210893
#	220547
#	236726
#
# Disc length: 3355 seconds
#
# Revision: 0
# Processed by: cddbd v1.5PL3 Copyright (c) Steve Scherf et al.
# Submitted via: audiograbber 1.83.01
#
DISCID=5b0d1818
DTITLE=Botafogo - Live In Holliwood '99
DYEAR=1999
DGENRE=Blues
TTITLE0=El Hombre Suburbano
TTITLE1=Another Man Done Gone
TTITLE2=Let Mermaids Flirt With Me
TTITLE3=Slide Blues
TTITLE4=Little Red Rooster
TTITLE5=Blues Para Mi Guitarra
TTITLE6=Manuelita La Tortuga
TTITLE7=My Baby
TTITLE8=Precious Lord
TTITLE9=Buck Dancer's Choice
TTITLE10=Yo Me Pregunto
TTITLE11=I Just Want To Make Love To You
TTITLE12=Hoochie Coochie Man
TTITLE13=No Puede Ser
TTITLE14=You Gotta Move
TTITLE15=Corrina, Corrina
TTITLE16=Señores
TTITLE17=Spoonfull
TTITLE18=Built For Comfort
TTITLE19=El Reino Del Revés
TTITLE20=I Ain't Superstitious
TTITLE21=Love In Vain
TTITLE22=Penetieso Blues
TTITLE23=Backdoor Man
EXTD=
EXTT0=
EXTT1=
EXTT2=
EXTT3=
EXTT4=
EXTT5=
EXTT6=
EXTT7=
EXTT8=
EXTT9=
EXTT10=
EXTT11=
EXTT12=
EXTT13=
EXTT14=
EXTT15=
EXTT16=
EXTT17=
EXTT18=
EXTT19=
EXTT20=
EXTT21=
EXTT22=
EXTT23=
PLAYORDER=
